<svg xmlns="http://www.w3.org/2000/svg" viewBox="0 0 512 512">
  <defs>
    <linearGradient id="bg" x1="0%" y1="0%" x2="100%" y2="100%">
      <stop offset="0%" style="stop-color:#1E3A5F"/>
      <stop offset="100%" style="stop-color:#2D4A6F"/>
    </linearGradient>
  </defs>
  <!-- Background -->
  <rect width="512" height="512" rx="102" fill="url(#bg)"/>
  <!-- Phone Icon - Classic handset -->
  <g transform="translate(126, 126)">
    <!-- Handset shape -->
    <path d="M60 40 C30 40 20 70 20 100 L20 160 C20 190 30 220 60 220 L80 220 L80 200 L70 200 C50 200 40 180 40 160 L40 100 C40 80 50 60 70 60 L80 60 L80 40 L60 40 Z" fill="#C9A227"/>
    <path d="M200 40 C230 40 240 70 240 100 L240 160 C240 190 230 220 200 220 L180 220 L180 200 L190 200 C210 200 220 180 220 160 L220 100 C220 80 210 60 190 60 L180 60 L180 40 L200 40 Z" fill="#C9A227"/>
    <!-- Connecting bar -->
    <rect x="70" y="50" width="120" height="20" rx="10" fill="#C9A227"/>
    <rect x="70" y="190" width="120" height="20" rx="10" fill="#C9A227"/>
    <!-- Sound waves -->
    <path d="M280 100 Q300 130 280 160" fill="none" stroke="#C9A227" stroke-width="12" stroke-linecap="round" opacity="0.8"/>
    <path d="M300 80 Q330 130 300 180" fill="none" stroke="#C9A227" stroke-width="12" stroke-linecap="round" opacity="0.5"/>
    <path d="M320 60 Q360 130 320 200" fill="none" stroke="#C9A227" stroke-width="12" stroke-linecap="round" opacity="0.3"/>
  </g>
</svg>
