<?xml version="1.0" encoding="UTF-8"?>
<svg width="828" height="1792" viewBox="0 0 828 1792" xmlns="http://www.w3.org/2000/svg">
  <defs>
    <linearGradient id="bg" x1="0%" y1="0%" x2="100%" y2="100%">
      <stop offset="0%" style="stop-color:#1E3A5F"/>
      <stop offset="100%" style="stop-color:#2d4a6f"/>
    </linearGradient>
  </defs>
  <rect width="828" height="1792" fill="url(#bg)"/>
  <!-- Logo circle -->
  <circle cx="414" cy="846" r="74.52" fill="rgba(201, 162, 39, 0.15)"/>
  <!-- Phone icon -->
  <g transform="translate(382.95, 814.95)">
    <svg width="62.099999999999994" height="62.099999999999994" viewBox="0 0 24 24" fill="none" stroke="#C9A227" stroke-width="2" stroke-linecap="round" stroke-linejoin="round">
      <path d="M22 16.92v3a2 2 0 0 1-2.18 2 19.79 19.79 0 0 1-8.63-3.07 19.5 19.5 0 0 1-6-6 19.79 19.79 0 0 1-3.07-8.67A2 2 0 0 1 4.11 2h3a2 2 0 0 1 2 1.72 12.84 12.84 0 0 0 .7 2.81 2 2 0 0 1-.45 2.11L8.09 9.91a16 16 0 0 0 6 6l1.27-1.27a2 2 0 0 1 2.11-.45 12.84 12.84 0 0 0 2.81.7A2 2 0 0 1 22 16.92z"/>
    </svg>
  </g>
  <!-- Text -->
  <text x="414" y="957.78" text-anchor="middle" font-family="-apple-system, BlinkMacSystemFont, 'Segoe UI', Roboto, sans-serif" font-size="24.84" font-weight="700" fill="white">SMB Voice</text>
  <text x="414" y="988.8299999999999" text-anchor="middle" font-family="-apple-system, BlinkMacSystemFont, 'Segoe UI', Roboto, sans-serif" font-size="12.42" fill="rgba(255,255,255,0.7)">Professional Business Phone</text>
</svg>